
<svg version="1.0" xmlns="http://www.w3.org/2000/svg"
 width="512.000000pt" height="512.000000pt" viewBox="0 0 512.000000 512.000000" fill="#0000ff"
 preserveAspectRatio="xMidYMid meet">

<path d="M2458 4986 c-21 -7 -48 -20 -60 -28 -13 -9 -378 -340 -812 -738 -722
-661 -790 -727 -814 -778 l-27 -57 0 -875 c0 -703 3 -882 13 -913 21 -58 83
-129 143 -162 l54 -30 1133 -3 c622 -1 1132 0 1132 4 0 3 -30 39 -66 81 -36
41 -70 87 -75 101 -12 32 -4 70 22 98 l20 21 -103 120 c-96 113 -104 120 -128
111 -122 -47 -372 -62 -530 -32 -326 61 -596 268 -745 569 -185 371 -141 808
114 1127 107 136 224 228 385 304 604 285 1312 -57 1479 -715 31 -121 30 -379
-1 -493 -46 -169 -119 -313 -222 -436 l-48 -58 80 -92 c79 -91 80 -93 104 -78
37 25 89 20 123 -11 16 -16 136 -154 267 -308 130 -154 243 -286 249 -294 34
-36 155 52 202 147 l28 57 0 880 0 880 -30 60 c-28 55 -95 120 -819 782 -517
474 -804 730 -835 745 -57 28 -177 35 -233 14z"/>
<path d="M2431 3640 c-279 -59 -493 -263 -556 -532 -31 -131 -13 -323 40 -445
84 -188 270 -345 475 -399 93 -24 253 -22 353 5 222 59 407 234 483 456 35
102 44 263 21 372 -31 142 -125 299 -233 388 -131 106 -264 156 -429 161 -60
2 -130 -1 -154 -6z"/>
<path d="M740 1055 l0 -84 83 -3 82 -3 3 -302 2 -303 95 0 95 0 2 303 3 302
83 3 82 3 0 84 0 85 -265 0 -265 0 0 -85z"/>
<path d="M2742 858 c5 -327 10 -351 88 -429 62 -62 125 -83 250 -84 82 0 103
4 152 27 62 29 127 90 152 143 28 59 36 140 36 388 l0 237 -100 0 -100 0 0
-242 c0 -134 -5 -259 -10 -279 -23 -81 -115 -121 -194 -84 -67 32 -71 47 -74
343 l-3 262 -101 0 -100 0 4 -282z"/>
<path d="M1507 890 c-88 -23 -159 -77 -200 -154 -31 -58 -31 -174 1 -233 29
-55 83 -107 141 -135 38 -19 62 -23 141 -23 84 0 102 3 152 28 64 32 112 81
140 145 30 68 23 173 -17 238 -35 56 -100 109 -153 124 -54 16 -161 21 -205
10z m143 -165 c36 -19 60 -62 60 -110 0 -26 -9 -45 -34 -73 -30 -32 -40 -37
-78 -37 -55 0 -95 25 -114 72 -43 102 67 199 166 148z"/>
<path d="M2280 884 c-19 -8 -45 -25 -57 -36 l-23 -21 0 26 0 27 -95 0 -95 0 0
-395 0 -395 95 0 95 0 0 154 0 155 48 -27 c62 -35 156 -37 218 -5 98 52 148
136 148 253 1 63 -4 84 -27 132 -58 118 -200 179 -307 132z m108 -178 c34 -31
37 -39 37 -86 0 -47 -3 -55 -39 -87 -35 -32 -42 -35 -83 -30 -33 3 -54 13 -77
36 -27 27 -31 39 -31 82 0 46 4 54 37 85 30 27 46 34 78 34 32 0 48 -7 78 -34z"/>
<path d="M3518 848 c11 -18 68 -120 126 -226 l107 -193 -86 -163 c-47 -90 -85
-166 -85 -170 0 -4 46 -5 103 -4 l102 3 206 393 207 392 -107 0 -107 0 -64
-130 c-76 -153 -64 -154 -151 21 l-53 109 -109 0 -109 0 20 -32z"/>
</g>
</svg>
