<svg width="12" height="15" viewBox="0 0 12 15" fill="none" xmlns="http://www.w3.org/2000/svg">
<path fill-rule="evenodd" clip-rule="evenodd" d="M2.45441 2.86457C3.34799 1.971 4.55993 1.469 5.82363 1.469C7.08733 1.469 8.29927 1.971 9.19284 2.86457C10.0864 3.75814 10.5884 4.97008 10.5884 6.23378C10.5884 8.07972 9.38889 9.86238 8.0864 11.2372C7.44598 11.9132 6.80376 12.4664 6.32106 12.8508C6.12433 13.0074 5.9548 13.1355 5.82363 13.2318C5.69245 13.1355 5.52293 13.0074 5.3262 12.8508C4.84349 12.4664 4.20127 11.9132 3.56085 11.2372C2.25836 9.86238 1.05884 8.07972 1.05884 6.23378C1.05884 4.97008 1.56084 3.75814 2.45441 2.86457ZM5.52966 14.321C5.52982 14.3211 5.52996 14.3212 5.82363 13.8807L5.52996 14.3212C5.70779 14.4398 5.93947 14.4398 6.1173 14.3212L5.82363 13.8807C6.1173 14.3212 6.11743 14.3211 6.11759 14.321L6.118 14.3208L6.11919 14.32L6.12301 14.3174L6.13628 14.3084C6.14759 14.3008 6.16378 14.2897 6.18452 14.2753C6.226 14.2466 6.28572 14.2047 6.36108 14.1502C6.51175 14.0414 6.72524 13.8824 6.98064 13.6791C7.49059 13.273 8.17193 12.6865 8.85506 11.9654C10.1997 10.5461 11.6473 8.50533 11.6473 6.23378C11.6473 4.68926 11.0337 3.208 9.94155 2.11586C8.84941 1.02372 7.36815 0.410156 5.82363 0.410156C4.27911 0.410156 2.79784 1.02372 1.7057 2.11586C0.613559 3.208 0 4.68926 0 6.23378C0 8.50533 1.44758 10.5461 2.79219 11.9654C3.47533 12.6865 4.15666 13.273 4.66662 13.6791C4.92202 13.8824 5.13551 14.0414 5.28617 14.1502C5.36153 14.2047 5.42126 14.2466 5.46274 14.2753C5.48348 14.2897 5.49967 14.3008 5.51098 14.3084L5.52425 14.3174L5.52806 14.32L5.52925 14.3208L5.52966 14.321ZM5.13732 5.20666C5.34047 5.07092 5.57931 4.99847 5.82363 4.99847C6.15125 4.99847 6.46546 5.12862 6.69713 5.36028C6.9288 5.59195 7.05894 5.90616 7.05894 6.23378C7.05894 6.47811 6.98649 6.71694 6.85076 6.92009C6.71502 7.12323 6.52209 7.28157 6.29636 7.37507C6.07064 7.46856 5.82226 7.49303 5.58263 7.44536C5.343 7.3977 5.12289 7.28004 4.95013 7.10728C4.77737 6.93452 4.65971 6.71441 4.61205 6.47478C4.56438 6.23515 4.58885 5.98677 4.68235 5.76105C4.77584 5.53532 4.93418 5.34239 5.13732 5.20666ZM5.82363 3.93963C5.36989 3.93963 4.92634 4.07418 4.54906 4.32626C4.17179 4.57835 3.87774 4.93665 3.7041 5.35585C3.53047 5.77505 3.48503 6.23633 3.57355 6.68135C3.66207 7.12637 3.88057 7.53515 4.20142 7.856C4.52226 8.17684 4.93104 8.39534 5.37606 8.48386C5.82108 8.57238 6.28236 8.52695 6.70156 8.35331C7.12077 8.17967 7.47907 7.88562 7.73115 7.50835C7.98324 7.13108 8.11779 6.68752 8.11779 6.23378C8.11779 5.62534 7.87608 5.04181 7.44584 4.61157C7.0156 4.18133 6.43208 3.93963 5.82363 3.93963Z" fill="#747474"/>
</svg>
