<svg width="179" height="162" viewBox="0 0 179 162" fill="none" xmlns="http://www.w3.org/2000/svg">
<path fill-rule="evenodd" clip-rule="evenodd" d="M89.0476 159.588C129.229 159.588 161.802 127.015 161.802 86.8336C161.802 46.6525 129.229 14.0792 89.0476 14.0792C48.8664 14.0792 16.2932 46.6525 16.2932 86.8336C16.2932 127.015 48.8664 159.588 89.0476 159.588ZM89.0476 161.588C130.333 161.588 163.802 128.119 163.802 86.8336C163.802 45.5479 130.333 12.0792 89.0476 12.0792C47.7619 12.0792 14.2932 45.5479 14.2932 86.8336C14.2932 128.119 47.7619 161.588 89.0476 161.588Z" fill="#747474"/>
<path fill-rule="evenodd" clip-rule="evenodd" d="M130.603 39.8374H47.4905C44.1768 39.8374 41.4905 42.5237 41.4905 45.8374V128.39C41.4905 131.704 44.1768 134.39 47.4905 134.39H130.603C133.917 134.39 136.603 131.704 136.603 128.39V45.8374C136.603 42.5237 133.917 39.8374 130.603 39.8374ZM47.4905 37.8374C43.0722 37.8374 39.4905 41.4191 39.4905 45.8374V128.39C39.4905 132.808 43.0722 136.39 47.4905 136.39H130.603C135.021 136.39 138.603 132.808 138.603 128.39V45.8374C138.603 41.4191 135.021 37.8374 130.603 37.8374H47.4905Z" fill="#747474"/>
<path fill-rule="evenodd" clip-rule="evenodd" d="M138.603 76.4747H39.4905V74.4747H138.603V76.4747Z" fill="#747474"/>
<path fill-rule="evenodd" clip-rule="evenodd" d="M48.1306 47.9164C48.1306 46.8118 49.026 45.9164 50.1306 45.9164H93.8073C94.9119 45.9164 95.8073 46.8118 95.8073 47.9164C95.8073 49.021 94.9119 49.9164 93.8073 49.9164H50.1306C49.026 49.9164 48.1306 49.021 48.1306 47.9164Z" fill="#747474"/>
<path fill-rule="evenodd" clip-rule="evenodd" d="M48.1306 57.4363C48.1306 56.3317 49.026 55.4363 50.1306 55.4363H75.3287C76.4333 55.4363 77.3287 56.3317 77.3287 57.4363C77.3287 58.5408 76.4333 59.4363 75.3287 59.4363H50.1306C49.026 59.4363 48.1306 58.5408 48.1306 57.4363Z" fill="#747474"/>
<path fill-rule="evenodd" clip-rule="evenodd" d="M48.1306 66.9546C48.1306 65.85 49.026 64.9546 50.1306 64.9546H66.3694C67.474 64.9546 68.3694 65.85 68.3694 66.9546C68.3694 68.0592 67.474 68.9546 66.3694 68.9546H50.1306C49.026 68.9546 48.1306 68.0592 48.1306 66.9546Z" fill="#747474"/>
<path fill-rule="evenodd" clip-rule="evenodd" d="M81.7268 113.992C81.7268 112.888 82.6222 111.992 83.7268 111.992H94.366C95.4706 111.992 96.366 112.888 96.366 113.992C96.366 115.097 95.4706 115.992 94.366 115.992H83.7268C82.6222 115.992 81.7268 115.097 81.7268 113.992Z" fill="#747474"/>
<path d="M77.5673 95.5162C77.5673 96.7532 76.5645 97.756 75.3275 97.756C74.0905 97.756 73.0876 96.7532 73.0876 95.5162C73.0876 94.2792 74.0905 93.2764 75.3275 93.2764C76.5645 93.2764 77.5673 94.2792 77.5673 95.5162Z" fill="#747474"/>
<path d="M104.445 95.5161C104.445 96.7531 103.442 97.7559 102.205 97.7559C100.968 97.7559 99.9651 96.7531 99.9651 95.5161C99.9651 94.2791 100.968 93.2762 102.205 93.2762C103.442 93.2762 104.445 94.2791 104.445 95.5161Z" fill="#747474"/>
<path fill-rule="evenodd" clip-rule="evenodd" d="M151.163 41.7576C151.163 40.653 152.058 39.7576 153.163 39.7576H175.001C176.106 39.7576 177.001 40.653 177.001 41.7576C177.001 42.8621 176.106 43.7576 175.001 43.7576H153.163C152.058 43.7576 151.163 42.8621 151.163 41.7576Z" fill="#747474"/>
<path fill-rule="evenodd" clip-rule="evenodd" d="M170.918 100.965C171.308 100.574 171.942 100.574 172.332 100.965L177.807 106.44C178.198 106.831 178.198 107.464 177.807 107.854C177.417 108.245 176.784 108.245 176.393 107.854L170.918 102.379C170.527 101.988 170.527 101.355 170.918 100.965Z" fill="#747474"/>
<path fill-rule="evenodd" clip-rule="evenodd" d="M0.7072 78.5675C1.09772 78.1769 1.73089 78.1769 2.12141 78.5675L7.59678 84.0428C7.9873 84.4333 7.9873 85.0665 7.59678 85.457C7.20625 85.8476 6.57309 85.8476 6.18256 85.457L0.7072 79.9817C0.316676 79.5911 0.316676 78.958 0.7072 78.5675Z" fill="#747474"/>
<path fill-rule="evenodd" clip-rule="evenodd" d="M177.964 100.965C178.354 101.355 178.354 101.988 177.964 102.379L172.488 107.854C172.098 108.245 171.465 108.245 171.074 107.854C170.684 107.464 170.684 106.831 171.074 106.44L176.55 100.965C176.94 100.574 177.573 100.574 177.964 100.965Z" fill="#747474"/>
<path fill-rule="evenodd" clip-rule="evenodd" d="M7.75285 78.5674C8.14338 78.958 8.14338 79.5911 7.75285 79.9816L2.27749 85.457C1.88697 85.8475 1.2538 85.8475 0.863278 85.457C0.472753 85.0665 0.472754 84.4333 0.863278 84.0428L6.33864 78.5674C6.72916 78.1769 7.36233 78.1769 7.75285 78.5674Z" fill="#747474"/>
<path fill-rule="evenodd" clip-rule="evenodd" d="M37.8344 18.6514C38.2249 19.0419 38.2249 19.6751 37.8344 20.0656L32.359 25.541C31.9685 25.9315 31.3353 25.9315 30.9448 25.541C30.5543 25.1505 30.5543 24.5173 30.9448 24.1268L36.4202 18.6514C36.8107 18.2609 37.4439 18.2609 37.8344 18.6514Z" fill="#747474"/>
<path fill-rule="evenodd" clip-rule="evenodd" d="M136.364 -8.74228e-08C137.469 -3.91405e-08 138.364 0.89543 138.364 2L138.364 23.8383C138.364 24.9429 137.469 25.8383 136.364 25.8383C135.26 25.8383 134.364 24.9429 134.364 23.8383L134.364 2C134.364 0.89543 135.26 -1.35705e-07 136.364 -8.74228e-08Z" fill="#747474"/>
<path fill-rule="evenodd" clip-rule="evenodd" d="M148.388 28.9352C147.607 28.1542 147.607 26.8878 148.388 26.1068L163.83 10.6647C164.611 9.88369 165.878 9.88369 166.659 10.6647C167.44 11.4458 167.44 12.7121 166.659 13.4932L151.217 28.9352C150.436 29.7163 149.169 29.7163 148.388 28.9352Z" fill="#747474"/>
<path fill-rule="evenodd" clip-rule="evenodd" d="M158.483 141.67C159.697 141.67 160.682 140.685 160.682 139.47C160.682 138.255 159.697 137.27 158.483 137.27C157.268 137.27 156.283 138.255 156.283 139.47C156.283 140.685 157.268 141.67 158.483 141.67ZM158.483 143.67C160.802 143.67 162.682 141.789 162.682 139.47C162.682 137.151 160.802 135.27 158.483 135.27C156.163 135.27 154.283 137.151 154.283 139.47C154.283 141.789 156.163 143.67 158.483 143.67Z" fill="#747474"/>
<path fill-rule="evenodd" clip-rule="evenodd" d="M18.4929 17.3583C19.7077 17.3583 20.6926 16.3735 20.6926 15.1587C20.6926 13.9438 19.7077 12.959 18.4929 12.959C17.278 12.959 16.2932 13.9438 16.2932 15.1587C16.2932 16.3735 17.278 17.3583 18.4929 17.3583ZM18.4929 19.3583C20.8123 19.3583 22.6926 17.4781 22.6926 15.1587C22.6926 12.8392 20.8123 10.959 18.4929 10.959C16.1735 10.959 14.2932 12.8392 14.2932 15.1587C14.2932 17.4781 16.1735 19.3583 18.4929 19.3583Z" fill="#747474"/>
</svg>
