<svg width="24" height="22" viewBox="0 0 24 22" fill="none" xmlns="http://www.w3.org/2000/svg">
<path d="M20.76 20.4578H2.80169C2.32541 20.4578 1.86863 20.2686 1.53185 19.9318C1.19506 19.595 1.00586 19.1383 1.00586 18.662V6.09115C1.00586 5.61486 1.19506 5.15808 1.53185 4.8213C1.86863 4.48452 2.32541 4.29531 2.80169 4.29531H6.39336L8.18919 1.60156H15.3725L17.1684 4.29531H20.76C21.2363 4.29531 21.6931 4.48452 22.0299 4.8213C22.3667 5.15808 22.5559 5.61486 22.5559 6.09115V18.662C22.5559 19.1383 22.3667 19.595 22.0299 19.9318C21.6931 20.2686 21.2363 20.4578 20.76 20.4578Z" stroke="#343434" stroke-width="1.4735" stroke-linecap="round" stroke-linejoin="round"/>
<path d="M11.7809 15.968C14.0124 15.968 15.8215 14.1589 15.8215 11.9273C15.8215 9.69577 14.0124 7.88672 11.7809 7.88672C9.54928 7.88672 7.74023 9.69577 7.74023 11.9273C7.74023 14.1589 9.54928 15.968 11.7809 15.968Z" stroke="#343434" stroke-width="1.4735" stroke-linecap="round" stroke-linejoin="round"/>
</svg>
