<svg width="138" height="161" viewBox="0 0 138 161" fill="none" xmlns="http://www.w3.org/2000/svg">
<path d="M84.2543 48.7635L136.731 61.9612L121.019 74.2161L136.731 85.8426L85.197 100.297L68.3857 88.8278L53.3027 101.083L1.14062 87.8851L17.0092 73.5877L1.14062 61.4898L33.192 53.7912M40.2622 51.9058L36.6486 52.8485" stroke="#747474" stroke-width="2" stroke-linecap="round" stroke-linejoin="round"/>
<path d="M17.0098 98.2544V103.753M17.0098 108.624V146.803L68.7005 160.001L120.391 146.332V97.7831" stroke="#747474" stroke-width="2" stroke-linecap="round" stroke-linejoin="round"/>
<path d="M68.5432 154.344V148.531M68.5432 142.561V97.4688M99.0235 81.1289L68.5432 88.6704L16.6953 73.5874L68.5432 60.8611L120.862 74.373L111.907 77.201M103.108 79.872L107.822 78.6151" stroke="#747474" stroke-width="2" stroke-linecap="round" stroke-linejoin="round"/>
<path d="M43.4043 50.9632C43.9071 50.9632 50.1079 49.4968 53.1454 48.7635L68.6998 60.8614L84.2541 48.7635" stroke="#747474" stroke-width="2" stroke-linecap="round" stroke-linejoin="round"/>
<rect x="65.2441" y="1" width="6.91305" height="35.1937" stroke="#747474" stroke-width="2" stroke-linecap="round" stroke-linejoin="round"/>
<circle cx="68.7017" cy="44.6782" r="3.71344" stroke="#747474" stroke-width="2" stroke-linecap="round" stroke-linejoin="round"/>
<path d="M104.379 42.9494L111.746 35.5826M90.873 37.8336L99.4676 22.2815" stroke="#747474" stroke-width="2" stroke-linecap="round" stroke-linejoin="round"/>
<path d="M32.5529 42.9494L25.1861 35.5826M46.0586 37.8336L37.464 22.2815" stroke="#747474" stroke-width="2" stroke-linecap="round" stroke-linejoin="round"/>
</svg>
