<svg width="17" height="18" viewBox="0 0 17 18" fill="none" xmlns="http://www.w3.org/2000/svg">
<path d="M5.39894 16.3105H1.41414C1.238 16.3105 1.06907 16.2406 0.944524 16.116C0.819975 15.9915 0.750004 15.8225 0.750004 15.6464V11.9356C0.749702 11.8493 0.766411 11.7639 0.799175 11.6841C0.831938 11.6043 0.880113 11.5318 0.940942 11.4707L10.9029 1.50868C10.9647 1.44593 11.0384 1.39609 11.1196 1.36208C11.2009 1.32806 11.2881 1.31055 11.3761 1.31055C11.4642 1.31055 11.5514 1.32806 11.6326 1.36208C11.7139 1.39609 11.7875 1.44593 11.8493 1.50868L15.5519 5.21122C15.6146 5.27302 15.6645 5.34668 15.6985 5.42791C15.7325 5.50915 15.75 5.59634 15.75 5.68441C15.75 5.77248 15.7325 5.85968 15.6985 5.94091C15.6645 6.02215 15.6146 6.09581 15.5519 6.15761L5.39894 16.3105Z" stroke="#343434" stroke-width="1.5" stroke-linecap="round" stroke-linejoin="round"/>
<path d="M15.3604 16.3105H5.39844" stroke="#343434" stroke-width="1.5" stroke-linecap="round" stroke-linejoin="round"/>
<path d="M8.71875 3.69336L13.3677 8.34229" stroke="#343434" stroke-width="1.5" stroke-linecap="round" stroke-linejoin="round"/>
</svg>
