<svg width="19" height="21" viewBox="0 0 19 21" fill="none" xmlns="http://www.w3.org/2000/svg">
<path fill-rule="evenodd" clip-rule="evenodd" d="M15.0557 0.410156C15.4699 0.410156 15.8057 0.745943 15.8057 1.16016V3.46582H18.1039C18.5181 3.46582 18.8539 3.80161 18.8539 4.21582C18.8539 4.63003 18.5181 4.96582 18.1039 4.96582H15.8057V7.26016C15.8057 7.67437 15.4699 8.01016 15.0557 8.01016C14.6415 8.01016 14.3057 7.67437 14.3057 7.26016V4.96582H12.0039C11.5897 4.96582 11.2539 4.63003 11.2539 4.21582C11.2539 3.80161 11.5897 3.46582 12.0039 3.46582H14.3057V1.16016C14.3057 0.745943 14.6415 0.410156 15.0557 0.410156ZM1.5 5.92969V9.92969H5.5V5.92969H1.5ZM0 5.42969C0 4.8774 0.447715 4.42969 1 4.42969H6C6.55228 4.42969 7 4.8774 7 5.42969V10.4297C7 10.982 6.55228 11.4297 6 11.4297H1C0.447715 11.4297 0 10.982 0 10.4297V5.42969ZM1.5 18.9297V14.9297H5.5V18.9297H1.5ZM1 13.4297C0.447715 13.4297 0 13.8774 0 14.4297V19.4297C0 19.982 0.447715 20.4297 1 20.4297H6C6.55228 20.4297 7 19.982 7 19.4297V14.4297C7 13.8774 6.55228 13.4297 6 13.4297H1ZM11.5 18.9297V14.9297H15.5V18.9297H11.5ZM11 13.4297C10.4477 13.4297 10 13.8774 10 14.4297V19.4297C10 19.982 10.4477 20.4297 11 20.4297H16C16.5523 20.4297 17 19.982 17 19.4297V14.4297C17 13.8774 16.5523 13.4297 16 13.4297H11ZM11.417 7.92773V9.96777H13.4586V11.4678H11.167C10.4766 11.4678 9.91699 10.9081 9.91699 10.2178V7.92773H11.417Z" fill="white"/>
</svg>
