<svg width="18" height="19" viewBox="0 0 18 19" fill="none" xmlns="http://www.w3.org/2000/svg">
<path d="M10.8182 9.13281H1" stroke="white" stroke-width="1.3" stroke-linecap="round" stroke-linejoin="round"/>
<path d="M16.9986 9.13281H14.4531" stroke="white" stroke-width="1.3" stroke-linecap="round" stroke-linejoin="round"/>
<path d="M12.6365 10.9508C13.6407 10.9508 14.4547 10.1368 14.4547 9.13263C14.4547 8.12848 13.6407 7.31445 12.6365 7.31445C11.6324 7.31445 10.8184 8.12848 10.8184 9.13263C10.8184 10.1368 11.6324 10.9508 12.6365 10.9508Z" stroke="white" stroke-width="1.3" stroke-linecap="round" stroke-linejoin="round"/>
<path d="M5 3.07227H1" stroke="white" stroke-width="1.3" stroke-linecap="round" stroke-linejoin="round"/>
<path d="M5 15.6777H1" stroke="white" stroke-width="1.3" stroke-linecap="round" stroke-linejoin="round"/>
<path d="M17.0004 3.07227H8.63672" stroke="white" stroke-width="1.3" stroke-linecap="round" stroke-linejoin="round"/>
<path d="M17.0004 15.6777H8.63672" stroke="white" stroke-width="1.3" stroke-linecap="round" stroke-linejoin="round"/>
<path d="M6.81818 4.89027C7.82234 4.89027 8.63636 4.07624 8.63636 3.07209C8.63636 2.06793 7.82234 1.25391 6.81818 1.25391C5.81403 1.25391 5 2.06793 5 3.07209C5 4.07624 5.81403 4.89027 6.81818 4.89027Z" stroke="white" stroke-width="1.3" stroke-linecap="round" stroke-linejoin="round"/>
<path d="M6.81818 17.4957C7.82234 17.4957 8.63636 16.6817 8.63636 15.6776C8.63636 14.6734 7.82234 13.8594 6.81818 13.8594C5.81403 13.8594 5 14.6734 5 15.6776C5 16.6817 5.81403 17.4957 6.81818 17.4957Z" stroke="white" stroke-width="1.3" stroke-linecap="round" stroke-linejoin="round"/>
</svg>
