<svg width="20" height="21" viewBox="0 0 20 21" fill="none" xmlns="http://www.w3.org/2000/svg">
<path d="M2.63636 19.4098H1.81818C1.60119 19.4098 1.39308 19.3236 1.23964 19.1702C1.0862 19.0167 1 18.8086 1 18.5916V17.7734" stroke="#015EA8" stroke-width="1.5" stroke-linecap="round" stroke-linejoin="round"/>
<path d="M8.36275 6.32031H5.9082" stroke="#015EA8" stroke-width="1.5" stroke-linecap="round" stroke-linejoin="round"/>
<path d="M8.36293 19.4102H6.72656" stroke="#015EA8" stroke-width="1.5" stroke-linecap="round" stroke-linejoin="round"/>
<path d="M14.0918 14.5014V12.0469" stroke="#015EA8" stroke-width="1.5" stroke-linecap="round" stroke-linejoin="round"/>
<path d="M1 13.6832V12.0469" stroke="#015EA8" stroke-width="1.5" stroke-linecap="round" stroke-linejoin="round"/>
<path d="M12.4551 19.4098H13.2733C13.4903 19.4098 13.6984 19.3236 13.8518 19.1702C14.0052 19.0167 14.0914 18.8086 14.0914 18.5916V17.7734" stroke="#015EA8" stroke-width="1.5" stroke-linecap="round" stroke-linejoin="round"/>
<path d="M12.4551 6.32031H13.2733C13.4903 6.32031 13.6984 6.40651 13.8518 6.55995C14.0052 6.71339 14.0914 6.9215 14.0914 7.13849V7.95668" stroke="#015EA8" stroke-width="1.5" stroke-linecap="round" stroke-linejoin="round"/>
<path d="M2.63636 6.32031H1.81818C1.60119 6.32031 1.39308 6.40651 1.23964 6.55995C1.0862 6.71339 1 6.9215 1 7.13849V7.95668" stroke="#015EA8" stroke-width="1.5" stroke-linecap="round" stroke-linejoin="round"/>
<path d="M14.09 14.5011H18.1809C18.3979 14.5011 18.606 14.4149 18.7595 14.2614C18.9129 14.108 18.9991 13.8999 18.9991 13.6829V2.22834C18.9991 2.01134 18.9129 1.80324 18.7595 1.6498C18.606 1.49636 18.3979 1.41016 18.1809 1.41016H6.72638C6.50939 1.41016 6.30128 1.49636 6.14784 1.6498C5.9944 1.80324 5.9082 2.01134 5.9082 2.22834V6.31925" stroke="#015EA8" stroke-width="1.5" stroke-linecap="round" stroke-linejoin="round"/>
</svg>
