<svg width="154" height="43" viewBox="0 0 154 43" fill="none" xmlns="http://www.w3.org/2000/svg">
<path d="M55.2815 15.1628V34.4818H48.9124V15.1628H43.6855V9.70215H60.5083V15.1628H55.2815Z" fill="#1B1F25"/>
<path d="M78.0644 32.2952C75.8874 34.449 73.3548 35.0473 70.7037 35.0473C68.3112 35.0473 65.6601 34.5686 63.3754 32.2952C61.5756 30.5112 60.832 28.39 60.832 26.1601C60.832 23.1904 62.1576 21.2542 63.3754 20.0685C64.7333 18.7305 67.1258 17.3164 70.7037 17.3164C74.3463 17.3164 76.7065 18.7632 78.0644 20.0685C79.2821 21.2542 80.6077 23.1904 80.6077 26.1601C80.6077 28.39 79.8749 30.5112 78.0644 32.2952ZM68.0957 23.4515C67.3629 24.1586 66.9533 25.2028 66.9533 26.1601C66.9533 27.1608 67.4275 28.129 68.0957 28.8034C68.7962 29.5104 69.7553 29.9129 70.7468 29.9129C71.706 29.9129 72.6651 29.4996 73.3656 28.8034C74.0984 28.0963 74.508 27.1282 74.508 26.1601C74.508 25.2681 74.0984 24.1912 73.3656 23.4515C72.7082 22.8206 71.6736 22.3746 70.7468 22.3746C69.7877 22.3746 68.7531 22.8206 68.0957 23.4515Z" fill="#1B1F25"/>
<path d="M89.8872 43H83.9922V17.8723H89.8872V19.6889C90.9218 18.3835 92.506 17.3066 94.9308 17.3066C97.4741 17.3066 99.4571 18.3835 100.783 19.7215C102.141 21.0921 103.283 23.2894 103.283 26.1503C103.283 28.935 102.216 31.165 100.632 32.7314C98.7889 34.548 96.6551 35.0375 94.9954 35.0375C93.9285 35.0375 91.7192 34.8199 89.8764 32.8837V43H89.8872ZM90.8463 23.4852C90.1135 24.2249 89.704 25.3018 89.704 26.2373C89.704 27.2055 90.2213 28.2388 90.8463 28.8806C91.5468 29.5877 92.506 29.9902 93.4974 29.9902C94.532 29.9902 95.4481 29.5768 96.1162 28.8806C96.7413 28.2497 97.2586 27.249 97.2586 26.2373C97.2586 25.3127 96.8491 24.2358 96.1162 23.4852C95.4588 22.7782 94.532 22.3757 93.4974 22.3757C92.4952 22.3757 91.5468 22.7782 90.8463 23.4852Z" fill="#1B1F25"/>
<path d="M113.595 9.70215V24.3763C113.595 25.4206 113.627 27.0196 114.845 28.2053C115.578 28.9124 116.763 29.391 117.862 29.391C118.962 29.391 120.104 28.945 120.805 28.3141C122.281 27.0088 122.238 25.1922 122.238 23.8216V9.70215H128.607V23.9303C128.607 26.5301 128.499 29.2496 125.848 31.9582C123.79 34.0793 121.214 35.0475 117.744 35.0475C113.875 35.0475 111.116 33.7095 109.607 32.0778C107.473 29.7391 107.215 26.5736 107.215 23.9412V9.70215H113.595Z" fill="#1B1F25"/>
<path d="M139.135 32.2189L131.182 17.8711H138.025L142.411 26.3775L146.679 17.8711H153.414L140.202 42.988H133.606L139.135 32.2189Z" fill="#1B1F25"/>
<path fill-rule="evenodd" clip-rule="evenodd" d="M22.402 25.4971C19.4985 27.9881 15.1268 27.6509 12.6256 24.7465C10.1244 21.8421 10.4724 17.4584 13.376 14.9673C16.2795 12.4763 20.6621 12.8135 23.1524 15.7179C25.6427 18.6332 25.3056 23.0061 22.402 25.4971Z" fill="#015EA8"/>
<path fill-rule="evenodd" clip-rule="evenodd" d="M34.8101 14.424L19.9117 0.783203C18.7698 -0.261068 17.0081 -0.261068 15.8663 0.783203L0.967853 14.424C0.347992 14.9896 0 15.7946 0 16.6322V32.4812C0 34.1346 1.33759 35.4834 3.00143 35.4834H24.5226L23.1741 33.9062C22.8261 33.5037 22.8805 32.9054 23.2828 32.5573L23.4351 32.4268L21.3906 30.0445C17.4431 31.4478 12.8757 30.3817 9.99389 27.0096C6.25298 22.6367 6.76409 16.0665 11.1249 12.3354C15.4965 8.59347 22.0649 9.10473 25.7949 13.4667C29.3292 17.5894 29.0682 23.6919 25.3382 27.51L26.9585 29.4027L27.1107 29.2722C27.5131 28.9241 28.1221 28.9785 28.4592 29.381L33.5921 35.3855C34.8536 35.0374 35.7779 33.8735 35.7779 32.5029V16.6322C35.7779 15.7946 35.4299 14.9896 34.8101 14.424Z" fill="#015EA8"/>
</svg>
