<svg width="19" height="20" viewBox="0 0 19 20" fill="none" xmlns="http://www.w3.org/2000/svg">
<path fill-rule="evenodd" clip-rule="evenodd" d="M15.0397 0C15.4535 0 15.789 0.335472 15.789 0.749298V3.05273H18.0858C18.4996 3.05273 18.8351 3.38821 18.8351 3.80203C18.8351 4.21586 18.4996 4.55133 18.0858 4.55133H15.789V6.84359C15.789 7.25741 15.4535 7.59289 15.0397 7.59289C14.6259 7.59289 14.2904 7.25741 14.2904 6.84359V4.55133H11.9915C11.5777 4.55133 11.2422 4.21586 11.2422 3.80203C11.2422 3.38821 11.5777 3.05273 11.9915 3.05273H14.2904V0.749298C14.2904 0.335472 14.6259 0 15.0397 0ZM1.4986 5.51422V9.51048H5.49485V5.51422H1.4986ZM0 5.01469C0 4.46292 0.447296 4.01562 0.999064 4.01562H5.99438C6.54615 4.01562 6.99345 4.46292 6.99345 5.01469V10.01C6.99345 10.5618 6.54615 11.0091 5.99438 11.0091H0.999064C0.447296 11.0091 0 10.5618 0 10.01V5.01469ZM1.4986 18.5007V14.5045H5.49485V18.5007H1.4986ZM0.999064 13.0059C0.447296 13.0059 0 13.4532 0 14.0049V19.0002C0 19.552 0.447296 19.9993 0.999064 19.9993H5.99438C6.54615 19.9993 6.99345 19.552 6.99345 19.0002V14.0049C6.99345 13.4532 6.54615 13.0059 5.99438 13.0059H0.999064ZM11.4869 18.5007V14.5045H15.4831V18.5007H11.4869ZM10.9873 13.0059C10.4356 13.0059 9.98828 13.4532 9.98828 14.0049V19.0002C9.98828 19.552 10.4356 19.9993 10.9873 19.9993H15.9827C16.5344 19.9993 16.9817 19.552 16.9817 19.0002V14.0049C16.9817 13.4532 16.5344 13.0059 15.9827 13.0059H10.9873ZM11.4048 7.51172V9.54985H13.4446V11.0484H11.1551C10.4654 11.0484 9.90625 10.4893 9.90625 9.79961V7.51172H11.4048Z" fill="#343434"/>
</svg>
