<svg width="22" height="22" viewBox="0 0 22 22" fill="none" xmlns="http://www.w3.org/2000/svg">
<path d="M13.3622 20.117V14.8189C13.3622 14.5847 13.2692 14.3601 13.1036 14.1945C12.938 14.0289 12.7134 13.9359 12.4792 13.9359H8.94713C8.71294 13.9359 8.48834 14.0289 8.32275 14.1945C8.15715 14.3601 8.06412 14.5847 8.06412 14.8189V20.117C8.06412 20.3512 7.97109 20.5758 7.80549 20.7414C7.63989 20.907 7.41529 21 7.1811 21H1.88301C1.64882 21 1.42423 20.907 1.25863 20.7414C1.09303 20.5758 1 20.3512 1 20.117V9.90713C1.00198 9.78493 1.02839 9.66435 1.07767 9.55251C1.12696 9.44067 1.19812 9.33982 1.28698 9.25591L10.1171 1.23151C10.2799 1.08259 10.4925 1 10.7132 1C10.9338 1 11.1464 1.08259 11.3092 1.23151L20.1393 9.25591C20.2282 9.33982 20.2994 9.44067 20.3486 9.55251C20.3979 9.66435 20.4243 9.78493 20.4263 9.90713V20.117C20.4263 20.3512 20.3333 20.5758 20.1677 20.7414C20.0021 20.907 19.7775 21 19.5433 21H14.2452C14.011 21 13.7864 20.907 13.6208 20.7414C13.4552 20.5758 13.3622 20.3512 13.3622 20.117Z" stroke="#343434" stroke-width="1.7" stroke-linecap="round" stroke-linejoin="round"/>
</svg>
