<svg width="24" height="23" viewBox="0 0 24 23" fill="none" xmlns="http://www.w3.org/2000/svg">
<path d="M9.79977 6.44141V20.0484C9.80111 20.1947 9.76552 20.3389 9.6963 20.4677C9.62708 20.5965 9.52646 20.7058 9.40377 20.7854L8.19377 21.5884C8.07655 21.6667 7.94224 21.7156 7.80216 21.7312C7.66207 21.7467 7.5203 21.7284 7.38878 21.6777C7.25726 21.627 7.13983 21.5455 7.04638 21.44C6.95292 21.3345 6.88618 21.2081 6.85177 21.0714L5.39977 15.2414" stroke="#343434" stroke-width="1.8" stroke-linecap="round" stroke-linejoin="round"/>
<path d="M5.4 15.2412C4.23305 15.2412 3.11389 14.7776 2.28873 13.9525C1.46357 13.1273 1 12.0081 1 10.8412C1 9.67423 1.46357 8.55507 2.28873 7.72991C3.11389 6.90475 4.23305 6.44118 5.4 6.44118H9.8C9.8 6.44118 15.795 6.44118 21.559 1.61218C21.6872 1.50609 21.8429 1.43853 22.0079 1.41733C22.173 1.39613 22.3406 1.42216 22.4915 1.4924C22.6424 1.56265 22.7702 1.67423 22.8602 1.8142C22.9502 1.95416 22.9987 2.11678 23 2.28318V19.3992C22.9987 19.5656 22.9502 19.7282 22.8602 19.8682C22.7702 20.0081 22.6424 20.1197 22.4915 20.19C22.3406 20.2602 22.173 20.2862 22.0079 20.265C21.8429 20.2438 21.6872 20.1763 21.559 20.0702C15.795 15.2412 9.8 15.2412 9.8 15.2412H5.4Z" stroke="#343434" stroke-width="1.8" stroke-linecap="round" stroke-linejoin="round"/>
</svg>
