<svg width="21" height="23" viewBox="0 0 21 23" fill="none" xmlns="http://www.w3.org/2000/svg">
<path fill-rule="evenodd" clip-rule="evenodd" d="M15.95 22.4102H1.65C1.21239 22.4102 0.792834 22.2363 0.483398 21.9269C0.173963 21.6175 0 21.1978 0 20.7602V2.06016C0 1.62255 0.173963 1.20286 0.483398 0.89342C0.792834 0.583985 1.21239 0.410156 1.65 0.410156H15.95C16.3876 0.410156 16.8072 0.583985 17.1166 0.89342C17.426 1.20286 17.6 1.62255 17.6 2.06016V4.81016H15.95V2.06016H1.65V20.7602H15.95V18.0102H17.6V20.7602C17.6 21.1978 17.426 21.6175 17.1166 21.9269C16.8072 22.2363 16.3876 22.4102 15.95 22.4102ZM20.35 11.4119C20.3495 11.6302 20.2625 11.8394 20.108 11.9937L15.8301 16.2716C15.7546 16.3527 15.6635 16.4177 15.5623 16.4628C15.4611 16.5079 15.3518 16.5321 15.2411 16.5341C15.1303 16.536 15.0203 16.5156 14.9175 16.4741C14.8148 16.4326 14.7215 16.3709 14.6432 16.2925C14.5648 16.2142 14.5031 16.1209 14.4616 16.0182C14.4201 15.9154 14.3997 15.8054 14.4016 15.6946C14.4036 15.5839 14.4278 15.4746 14.4729 15.3734C14.518 15.2722 14.583 15.1811 14.6641 15.1056L17.5346 12.2351H6.93776C6.82435 12.2434 6.71045 12.2282 6.60318 12.1905C6.4959 12.1528 6.39755 12.0934 6.31427 12.016C6.23099 11.9385 6.16456 11.8448 6.11914 11.7405C6.07371 11.6363 6.05027 11.5238 6.05027 11.4101C6.05027 11.2964 6.07371 11.1839 6.11914 11.0797C6.16456 10.9754 6.23099 10.8817 6.31427 10.8042C6.39755 10.7268 6.4959 10.6674 6.60318 10.6297C6.71045 10.592 6.82435 10.5768 6.93776 10.5851H17.5334L14.6641 7.7158C14.5093 7.56103 14.4224 7.35113 14.4224 7.13225C14.4224 6.91338 14.5093 6.70347 14.6641 6.5487C14.8189 6.39393 15.0288 6.30699 15.2476 6.30699C15.4665 6.30699 15.6764 6.39393 15.8312 6.5487L20.1091 10.8266C20.1857 10.9034 20.2463 10.9945 20.2877 11.0947C20.3287 11.1942 20.3499 11.3008 20.35 11.4084C20.35 11.409 20.35 11.4095 20.3501 11.4101C20.35 11.4107 20.35 11.4113 20.35 11.4119Z" fill="#343434"/>
</svg>
