<svg width="15" height="17" viewBox="0 0 15 17" fill="none" xmlns="http://www.w3.org/2000/svg">
<path fill-rule="evenodd" clip-rule="evenodd" d="M7.12867 1.91016C7.44903 1.91006 7.76626 1.97307 8.06227 2.09559C8.35827 2.21812 8.62723 2.39776 8.8538 2.62425C9.08036 2.85074 9.26008 3.11965 9.3827 3.41561C9.50532 3.71158 9.56843 4.0288 9.56843 4.34916C9.56843 4.83151 9.42541 5.30304 9.15744 5.70411C8.88947 6.10519 8.5086 6.4178 8.06297 6.60242C7.61735 6.78705 7.12699 6.83539 6.65389 6.74135C6.18079 6.6473 5.7462 6.41508 5.40507 6.07406C5.06394 5.73304 4.83158 5.29852 4.73739 4.82545C4.64319 4.35238 4.69139 3.862 4.87587 3.41632C5.06036 2.97064 5.37285 2.58967 5.77384 2.32157C6.17483 2.05348 6.64631 1.91031 7.12867 1.91016ZM8.63597 0.709641C8.15792 0.51176 7.64558 0.409994 7.1282 0.410156C6.34919 0.410401 5.58774 0.641627 4.94014 1.0746C4.29254 1.50757 3.78786 2.12284 3.48992 2.84262C3.19197 3.5624 3.11414 4.35436 3.26627 5.11837C3.4184 5.88239 3.79365 6.58413 4.34457 7.13489C4.8955 7.68564 5.59737 8.06067 6.36142 8.21256C7.12548 8.36445 7.91742 8.28637 8.63711 7.9882C9.35679 7.69003 9.97191 7.18516 10.4047 6.53742C10.8374 5.88968 11.0684 5.12817 11.0684 4.34916C11.0684 3.83178 10.9665 3.31946 10.7685 2.84148C10.5704 2.3635 10.2802 1.92921 9.91429 1.56343C9.54839 1.19764 9.11401 0.907521 8.63597 0.709641ZM3.93894 9.97852C2.89425 9.97852 1.89235 10.3935 1.15365 11.1322C0.414939 11.8709 -6.10352e-05 12.8728 -6.10352e-05 13.9175V15.5125C-6.10352e-05 15.9267 0.335725 16.2625 0.749939 16.2625C1.16415 16.2625 1.49994 15.9267 1.49994 15.5125V13.9175C1.49994 13.2707 1.7569 12.6503 2.21431 12.1929C2.67171 11.7355 3.29208 11.4785 3.93894 11.4785H10.3179C10.9648 11.4785 11.5852 11.7355 12.0426 12.1929C12.5 12.6503 12.7569 13.2707 12.7569 13.9175V15.5125C12.7569 15.9267 13.0927 16.2625 13.5069 16.2625C13.9212 16.2625 14.2569 15.9267 14.2569 15.5125V13.9175C14.2569 12.8728 13.8419 11.8709 13.1032 11.1322C12.3645 10.3935 11.3626 9.97852 10.3179 9.97852H3.93894Z" fill="#343434"/>
</svg>
