<svg width="17" height="17" viewBox="0 0 17 17" fill="none" xmlns="http://www.w3.org/2000/svg">
<path fill-rule="evenodd" clip-rule="evenodd" d="M1.5 7.91016C1.5 4.59645 4.18629 1.91016 7.5 1.91016C10.8137 1.91016 13.5 4.59645 13.5 7.91016C13.5 11.2239 10.8137 13.9102 7.5 13.9102C4.18629 13.9102 1.5 11.2239 1.5 7.91016ZM7.5 0.410156C3.35786 0.410156 0 3.76802 0 7.91016C0 12.0523 3.35786 15.4102 7.5 15.4102C11.6421 15.4102 15 12.0523 15 7.91016C15 3.76802 11.6421 0.410156 7.5 0.410156ZM15.6453 16.6469C15.9454 16.9323 16.4202 16.9204 16.7056 16.6202C16.991 16.3201 16.9791 15.8453 16.6789 15.5599L14.8439 13.8149C14.5438 13.5295 14.0691 13.5414 13.7836 13.8416C13.4982 14.1417 13.5101 14.6165 13.8103 14.9019L15.6453 16.6469Z" fill="white"/>
</svg>
