<svg width="19" height="16" viewBox="0 0 19 16" fill="none" xmlns="http://www.w3.org/2000/svg">
<path d="M17 9.66016H2C1.58579 9.66016 1.25 9.99594 1.25 10.4102V14.1602C1.25 14.5744 1.58579 14.9102 2 14.9102H17C17.4142 14.9102 17.75 14.5744 17.75 14.1602V10.4102C17.75 9.99594 17.4142 9.66016 17 9.66016Z" stroke="#747474" stroke-width="1.5" stroke-linecap="round" stroke-linejoin="round"/>
<path d="M17 1.41016H2C1.58579 1.41016 1.25 1.74594 1.25 2.16016V5.91016C1.25 6.32437 1.58579 6.66016 2 6.66016H17C17.4142 6.66016 17.75 6.32437 17.75 5.91016V2.16016C17.75 1.74594 17.4142 1.41016 17 1.41016Z" stroke="#747474" stroke-width="1.5" stroke-linecap="round" stroke-linejoin="round"/>
</svg>
