<svg width="21" height="24" viewBox="0 0 21 24" fill="none" xmlns="http://www.w3.org/2000/svg">
<path d="M4.38466 15.3855C6.25396 15.3855 7.76932 13.8702 7.76932 12.0009C7.76932 10.1316 6.25396 8.61621 4.38466 8.61621C2.51536 8.61621 1 10.1316 1 12.0009C1 13.8702 2.51536 15.3855 4.38466 15.3855Z" stroke="#343434" stroke-width="1.5" stroke-linecap="round" stroke-linejoin="round"/>
<path d="M16.2304 22.9998C18.0997 22.9998 19.615 21.4844 19.615 19.6151C19.615 17.7458 18.0997 16.2305 16.2304 16.2305C14.3611 16.2305 12.8457 17.7458 12.8457 19.6151C12.8457 21.4844 14.3611 22.9998 16.2304 22.9998Z" stroke="#343434" stroke-width="1.5" stroke-linecap="round" stroke-linejoin="round"/>
<path d="M16.2304 7.76932C18.0997 7.76932 19.615 6.25396 19.615 4.38466C19.615 2.51536 18.0997 1 16.2304 1C14.3611 1 12.8457 2.51536 12.8457 4.38466C12.8457 6.25396 14.3611 7.76932 16.2304 7.76932Z" stroke="#343434" stroke-width="1.5" stroke-linecap="round" stroke-linejoin="round"/>
<path d="M13.3863 6.21387L7.23047 10.1697" stroke="#343434" stroke-width="1.5" stroke-linecap="round" stroke-linejoin="round"/>
<path d="M7.23047 13.8301L13.3863 17.7859" stroke="#343434" stroke-width="1.5" stroke-linecap="round" stroke-linejoin="round"/>
</svg>
