<svg width="26" height="20" viewBox="0 0 26 20" fill="none" xmlns="http://www.w3.org/2000/svg">
<path d="M10.2755 14.3831C13.8579 14.3831 16.762 11.479 16.762 7.89663C16.762 4.31425 13.8579 1.41016 10.2755 1.41016C6.69315 1.41016 3.78906 4.31425 3.78906 7.89663C3.78906 11.479 6.69315 14.3831 10.2755 14.3831Z" stroke="#343434" stroke-width="1.8" stroke-miterlimit="10"/>
<path d="M1 18.7084C2.13649 17.3538 3.55585 16.2646 5.15833 15.5174C6.7608 14.7701 8.5075 14.3828 10.2757 14.3828C12.0438 14.3828 13.7905 14.7701 15.393 15.5174C16.9955 16.2646 18.4148 17.3538 19.5513 18.7084" stroke="#343434" stroke-width="1.8" stroke-linecap="round" stroke-linejoin="round"/>
<path d="M22.384 13.518C23.3393 13.518 24.1137 12.7436 24.1137 11.7883C24.1137 10.833 23.3393 10.0586 22.384 10.0586C21.4287 10.0586 20.6543 10.833 20.6543 11.7883C20.6543 12.7436 21.4287 13.518 22.384 13.518Z" stroke="#343434" stroke-width="1.8" stroke-linecap="round" stroke-linejoin="round"/>
<path d="M22.3828 10.059V8.76172" stroke="#343434" stroke-width="1.8" stroke-linecap="round" stroke-linejoin="round"/>
<path d="M20.8811 10.924L19.7676 10.2754" stroke="#343434" stroke-width="1.8" stroke-linecap="round" stroke-linejoin="round"/>
<path d="M20.8811 12.6543L19.7676 13.3029" stroke="#343434" stroke-width="1.8" stroke-linecap="round" stroke-linejoin="round"/>
<path d="M22.3828 13.5195V14.8168" stroke="#343434" stroke-width="1.8" stroke-linecap="round" stroke-linejoin="round"/>
<path d="M23.8867 12.6543L25.0002 13.3029" stroke="#343434" stroke-width="1.8" stroke-linecap="round" stroke-linejoin="round"/>
<path d="M23.8867 10.924L25.0002 10.2754" stroke="#343434" stroke-width="1.8" stroke-linecap="round" stroke-linejoin="round"/>
</svg>
