<svg width="22" height="14" viewBox="0 0 22 14" fill="none" xmlns="http://www.w3.org/2000/svg">
<path d="M20.6222 6.57551L18.5133 7.62565L15.7812 2.40055L17.9157 1.33333C18.0743 1.25248 18.2585 1.23762 18.428 1.292C18.5975 1.34637 18.7387 1.46558 18.8207 1.62362L20.921 5.6449C20.9636 5.72539 20.9896 5.81359 20.9976 5.90431C21.0056 5.99503 20.9954 6.08643 20.9676 6.17314C20.9397 6.25985 20.8948 6.34011 20.8355 6.40922C20.7762 6.47832 20.7036 6.53486 20.6222 6.57551V6.57551Z" stroke="#343434" stroke-width="1.5" stroke-linecap="round" stroke-linejoin="round"/>
<path d="M3.48647 7.5417L1.37765 6.48301C1.29645 6.44322 1.22409 6.3875 1.16485 6.31918C1.10562 6.25086 1.06073 6.17132 1.03285 6.0853C1.00498 5.99928 0.99468 5.90853 1.00258 5.81845C1.01048 5.72837 1.03641 5.6408 1.07883 5.56094L3.17912 1.53966C3.26128 1.38174 3.40185 1.26213 3.57088 1.20632C3.73992 1.1505 3.92407 1.16289 4.08412 1.24084L6.21855 2.30806L3.48647 7.5417Z" stroke="#343434" stroke-width="1.5" stroke-linecap="round" stroke-linejoin="round"/>
<path d="M18.5128 7.62639L17.1467 9.23149L14.0048 12.3734C13.9192 12.4535 13.8155 12.5116 13.7024 12.5428C13.5894 12.574 13.4706 12.5774 13.356 12.5527L8.40407 11.3147C8.31361 11.2895 8.22933 11.2459 8.15648 11.1866L3.48633 7.54102" stroke="#343434" stroke-width="1.5" stroke-linecap="round" stroke-linejoin="round"/>
<path d="M17.1471 9.23059L13.3905 6.49852L12.2977 7.31814C11.8242 7.67151 11.2493 7.86243 10.6585 7.86243C10.0677 7.86243 9.49268 7.67151 9.01921 7.31814L8.55817 6.96809C8.48021 6.90882 8.41573 6.83366 8.36899 6.7476C8.32225 6.66154 8.29433 6.56653 8.28706 6.46887C8.2798 6.3712 8.29336 6.27311 8.32685 6.18107C8.36034 6.08904 8.413 6.00518 8.48133 5.93502L11.8281 2.59676C11.891 2.5342 11.9656 2.48466 12.0476 2.45096C12.1297 2.41727 12.2176 2.40008 12.3062 2.40039H15.7811" stroke="#343434" stroke-width="1.5" stroke-linecap="round" stroke-linejoin="round"/>
<path d="M6.26953 2.30713L10.6494 1.02646C10.805 0.981835 10.9714 0.993938 11.119 1.06061L14.073 2.40104" stroke="#343434" stroke-width="1.5" stroke-linecap="round" stroke-linejoin="round"/>
</svg>
